<?xml version="1.0" encoding="UTF-8"?>
<svg width="794px" height="784px" viewBox="0 0 794 784" version="1.1" xmlns="http://www.w3.org/2000/svg" xmlns:xlink="http://www.w3.org/1999/xlink">
    <!-- Generator: Sketch 51.1 (57501) - http://www.bohemiancoding.com/sketch -->
    <title>graph</title>
    <desc>Created with Sketch.</desc>
    <defs></defs>
    <g id="graph" stroke="none" stroke-width="1" fill="none" fill-rule="evenodd">
        <path d="M397.5,78.5 L397.5,706.87091" id="Line-2" stroke="#000000" stroke-width="4" stroke-linecap="square"></path>
        <path d="M477.5,167.284699 L477.5,295.036351" id="Line-2-Copy" stroke="#4C7EF3" stroke-width="4" stroke-linecap="square"></path>
        <path d="M581.5,226.886355 L581.5,271.138628" id="Line-2-Copy-2" stroke="#4C7EF3" stroke-width="4" stroke-linecap="square"></path>
        <path d="M84,393 L712,393" id="Line-2" stroke="#000000" stroke-width="4" stroke-linecap="square"></path>
        <path d="M460.867188,233.246094 C459.85937,233.246094 458.912114,233.115236 458.025391,232.853516 C457.138667,232.591796 456.437503,232.238283 455.921875,231.792969 L456.765625,229.578125 C457.195315,229.937502 457.789059,230.232421 458.546875,230.462891 C459.304691,230.693361 460.082027,230.808594 460.878906,230.808594 C461.777348,230.808594 462.50195,230.566409 463.052734,230.082031 C463.603518,229.597654 463.878906,228.964848 463.878906,228.183594 C463.878906,227.699216 463.802735,227.281252 463.650391,226.929688 C463.498046,226.578123 463.296876,226.296876 463.046875,226.085938 C462.796874,225.874999 462.462893,225.705079 462.044922,225.576172 C461.626951,225.447265 461.199221,225.359375 460.761719,225.3125 C460.324217,225.265625 459.796878,225.238281 459.179688,225.230469 C459.15625,225.230469 459.04297,225.228516 458.839844,225.224609 C458.636718,225.220703 458.523438,225.21875 458.5,225.21875 L458.5,222.851562 L459.15625,222.851562 C459.835941,222.851562 460.419919,222.816407 460.908203,222.746094 C461.396487,222.675781 461.849607,222.554688 462.267578,222.382812 C462.685549,222.210937 463.001952,221.957033 463.216797,221.621094 C463.431642,221.285155 463.539062,220.871096 463.539062,220.378906 C463.539062,219.71484 463.289065,219.14844 462.789062,218.679688 C462.28906,218.210935 461.585942,217.976562 460.679688,217.976562 C459.21093,217.976562 457.902349,218.343746 456.753906,219.078125 L455.910156,216.851562 C457.332038,215.976558 459.019521,215.539062 460.972656,215.539062 C462.605477,215.539062 463.939448,215.968746 464.974609,216.828125 C466.009771,217.687504 466.527344,218.789056 466.527344,220.132812 C466.527344,221.070317 466.287112,221.869137 465.806641,222.529297 C465.326169,223.189456 464.628911,223.671873 463.714844,223.976562 C464.761724,224.179689 465.572263,224.68359 466.146484,225.488281 C466.720706,226.292973 467.007812,227.242182 467.007812,228.335938 C467.007812,229.375005 466.730472,230.271481 466.175781,231.025391 C465.621091,231.779301 464.886723,232.337889 463.972656,232.701172 C463.058589,233.064455 462.023443,233.246094 460.867188,233.246094 Z" id="3" fill="#4C7EF3"></path>
        <path d="M470.001953,125 L476.318359,107.820312 L479.775391,107.820312 L485.998047,125 L482.740234,125 L481.041016,120.148438 L475.029297,120.148438 L473.318359,125 L470.001953,125 Z M475.826172,117.78125 L480.232422,117.78125 C478.826165,113.273415 478.103516,110.945313 478.064453,110.796875 L475.826172,117.78125 Z" id="A" fill="#4C7EF3"></path>
        <path d="M576.541016,330 L576.541016,312.832031 L581.896484,312.832031 C584.169933,312.832031 585.865229,313.164059 586.982422,313.828125 C588.099615,314.492191 588.658203,315.597649 588.658203,317.144531 C588.658203,317.394533 588.642578,317.640624 588.611328,317.882812 C588.580078,318.125001 588.509766,318.400389 588.400391,318.708984 C588.291015,319.01758 588.146485,319.296874 587.966797,319.546875 C587.787108,319.796876 587.537111,320.041014 587.216797,320.279297 C586.896483,320.517579 586.521487,320.703124 586.091797,320.835938 C587.154302,321.093751 587.966794,321.587887 588.529297,322.318359 C589.0918,323.048832 589.373047,323.949213 589.373047,325.019531 C589.373047,326.636727 588.800787,327.871089 587.65625,328.722656 C586.511713,329.574223 584.927744,330 582.904297,330 L576.541016,330 Z M579.716797,327.703125 L582.470703,327.703125 C584.908215,327.703125 586.126953,326.75001 586.126953,324.84375 C586.126953,323.882808 585.822269,323.191408 585.212891,322.769531 C584.603513,322.347654 583.662116,322.136719 582.388672,322.136719 L579.716797,322.136719 L579.716797,327.703125 Z M579.716797,319.921875 L582.435547,319.921875 C584.53712,319.921875 585.587891,319.121102 585.587891,317.519531 C585.587891,316.621089 585.285159,316.003908 584.679688,315.667969 C584.074216,315.33203 583.111335,315.164062 581.791016,315.164062 L579.716797,315.164062 L579.716797,319.921875 Z" id="B" fill="#4C7EF3"></path>
        <path d="M595.53125,259.988281 L595.53125,245.703125 C595.421874,245.773438 594.91602,245.998045 594.013672,246.376953 C593.111324,246.755861 592.601563,246.960937 592.484375,246.992188 L592.484375,244.648438 C592.671876,244.5625 593.26562,244.267581 594.265625,243.763672 C595.26563,243.259763 595.816406,242.972657 595.917969,242.902344 L598.496094,242.902344 L598.496094,259.988281 L595.53125,259.988281 Z" id="1" fill="#4C7EF3"></path>
        <g id="Group" transform="translate(467.000000, 138.000000)" stroke="#4C7EF3" stroke-linecap="round" stroke-width="4">
            <path d="M0.5,0.5 L20.1596033,20.1596033" id="Line-3"></path>
            <path d="M20.5,0.5 L0.840396749,20.1596033" id="Line-3"></path>
        </g>
        <g id="Group" transform="translate(571.000000, 278.000000)" stroke="#4C7EF3" stroke-linecap="round" stroke-width="4">
            <path d="M0.5,0.5 L20.1596033,20.1596033" id="Line-3"></path>
            <path d="M20.5,0.5 L0.840396749,20.1596033" id="Line-3"></path>
        </g>
        <path d="M104,686 L691,99" id="Line-2" stroke="#4C7EF3" stroke-width="4" stroke-linecap="round" stroke-dasharray="13,21"></path>
    </g>
</svg>